<svg id="visual" viewBox="0 0 960 540" width="960" height="540" xmlns="http://www.w3.org/2000/svg" xmlns:xlink="http://www.w3.org/1999/xlink" version="1.1"><path d="M0 50L80 44L160 66L240 60L320 66L400 44L480 50L560 71L640 33L720 60L800 44L880 44L960 44L960 0L880 0L800 0L720 0L640 0L560 0L480 0L400 0L320 0L240 0L160 0L80 0L0 0Z" fill="#0c6291"></path><path d="M0 212L80 228L160 131L240 174L320 239L400 152L480 195L560 206L640 228L720 152L800 168L880 168L960 147L960 42L880 42L800 42L720 58L640 31L560 69L480 48L400 42L320 64L240 58L160 64L80 42L0 48Z" fill="#82a0be"></path><path d="M0 249L80 271L160 185L240 201L320 293L400 179L480 239L560 244L640 276L720 185L800 222L880 228L960 212L960 145L880 166L800 166L720 150L640 226L560 204L480 193L400 150L320 237L240 172L160 129L80 226L0 210Z" fill="#dbe3ec"></path><path d="M0 330L80 325L160 271L240 276L320 368L400 249L480 309L560 336L640 368L720 287L800 303L880 287L960 330L960 210L880 226L800 220L720 183L640 274L560 242L480 237L400 177L320 291L240 199L160 183L80 269L0 247Z" fill="#ffffff"></path><path d="M0 374L80 374L160 309L240 330L320 417L400 303L480 341L560 384L640 411L720 341L800 336L880 330L960 357L960 328L880 285L800 301L720 285L640 366L560 334L480 307L400 247L320 366L240 274L160 269L80 323L0 328Z" fill="#dbe3ec"></path><path d="M0 460L80 444L160 384L240 395L320 449L400 363L480 428L560 449L640 449L720 390L800 417L880 411L960 401L960 355L880 328L800 334L720 339L640 409L560 382L480 339L400 301L320 415L240 328L160 307L80 372L0 372Z" fill="#82a0be"></path><path d="M0 541L80 541L160 541L240 541L320 541L400 541L480 541L560 541L640 541L720 541L800 541L880 541L960 541L960 399L880 409L800 415L720 388L640 447L560 447L480 426L400 361L320 447L240 393L160 382L80 442L0 458Z" fill="#0c6291"></path></svg>